<svg xmlns="http://www.w3.org/2000/svg" width="1100" height="620" viewBox="0 0 1100 620">
<rect width="100%" height="100%" fill="#ffffff"/>
<text x="110" y="38" font-family="Arial" font-size="25" font-weight="bold" fill="#172b4d">Frozen geriatric-domain codes</text>
<text x="110" y="68" font-family="Arial" font-size="14" fill="#42526e">All 1,206 records; not-publicly-specified is retained in the source table.</text>
<line x1="110" x2="1055" y1="500.00" y2="500.00" stroke="#dfe1e6" stroke-width="1"/>
<text x="98" y="505.00" text-anchor="end" font-family="Arial" font-size="12" fill="#5e6c84">0</text>
<line x1="110" x2="1055" y1="420.00" y2="420.00" stroke="#dfe1e6" stroke-width="1"/>
<text x="98" y="425.00" text-anchor="end" font-family="Arial" font-size="12" fill="#5e6c84">6</text>
<line x1="110" x2="1055" y1="340.00" y2="340.00" stroke="#dfe1e6" stroke-width="1"/>
<text x="98" y="345.00" text-anchor="end" font-family="Arial" font-size="12" fill="#5e6c84">12</text>
<line x1="110" x2="1055" y1="260.00" y2="260.00" stroke="#dfe1e6" stroke-width="1"/>
<text x="98" y="265.00" text-anchor="end" font-family="Arial" font-size="12" fill="#5e6c84">18</text>
<line x1="110" x2="1055" y1="180.00" y2="180.00" stroke="#dfe1e6" stroke-width="1"/>
<text x="98" y="185.00" text-anchor="end" font-family="Arial" font-size="12" fill="#5e6c84">24</text>
<line x1="110" x2="1055" y1="100.00" y2="100.00" stroke="#dfe1e6" stroke-width="1"/>
<text x="98" y="105.00" text-anchor="end" font-family="Arial" font-size="12" fill="#5e6c84">30</text>
<rect x="123.12" y="487.96" width="36.38" height="12.04" fill="#6554c0"/>
<text x="141.31" y="482.96" text-anchor="middle" font-family="Arial" font-size="11" fill="#172b4d">0.9</text>
<rect x="162.50" y="464.97" width="36.38" height="35.03" fill="#ffab00"/>
<text x="180.69" y="459.97" text-anchor="middle" font-family="Arial" font-size="11" fill="#172b4d">2.6</text>
<text x="162.50" y="528" text-anchor="middle" font-family="Arial" font-size="12" fill="#172b4d">Frailty</text>
<rect x="228.12" y="181.44" width="36.38" height="318.56" fill="#6554c0"/>
<text x="246.31" y="176.44" text-anchor="middle" font-family="Arial" font-size="11" fill="#172b4d">23.9</text>
<rect x="267.50" y="320.47" width="36.38" height="179.53" fill="#ffab00"/>
<text x="285.69" y="315.47" text-anchor="middle" font-family="Arial" font-size="11" fill="#172b4d">13.5</text>
<text x="267.50" y="528" text-anchor="middle" font-family="Arial" font-size="12" fill="#172b4d">Mobility/ADL</text>
<rect x="333.12" y="328.13" width="36.38" height="171.87" fill="#6554c0"/>
<text x="351.31" y="323.13" text-anchor="middle" font-family="Arial" font-size="11" fill="#172b4d">12.9</text>
<rect x="372.50" y="351.12" width="36.38" height="148.88" fill="#ffab00"/>
<text x="390.69" y="346.12" text-anchor="middle" font-family="Arial" font-size="11" fill="#172b4d">11.2</text>
<text x="372.50" y="528" text-anchor="middle" font-family="Arial" font-size="12" fill="#172b4d">Cognition</text>
<rect x="438.12" y="468.25" width="36.38" height="31.75" fill="#6554c0"/>
<text x="456.31" y="463.25" text-anchor="middle" font-family="Arial" font-size="11" fill="#172b4d">2.4</text>
<rect x="477.50" y="346.74" width="36.38" height="153.26" fill="#ffab00"/>
<text x="495.69" y="341.74" text-anchor="middle" font-family="Arial" font-size="11" fill="#172b4d">11.5</text>
<text x="477.50" y="528" text-anchor="middle" font-family="Arial" font-size="12" fill="#172b4d">Proxy consent</text>
<rect x="543.12" y="385.06" width="36.38" height="114.94" fill="#6554c0"/>
<text x="561.31" y="380.06" text-anchor="middle" font-family="Arial" font-size="11" fill="#172b4d">8.6</text>
<rect x="582.50" y="263.55" width="36.38" height="236.45" fill="#ffab00"/>
<text x="600.69" y="258.55" text-anchor="middle" font-family="Arial" font-size="11" fill="#172b4d">17.7</text>
<text x="582.50" y="528" text-anchor="middle" font-family="Arial" font-size="12" fill="#172b4d">Nutrition</text>
<rect x="648.12" y="492.34" width="36.38" height="7.66" fill="#6554c0"/>
<text x="666.31" y="487.34" text-anchor="middle" font-family="Arial" font-size="11" fill="#172b4d">0.6</text>
<rect x="687.50" y="429.94" width="36.38" height="70.06" fill="#ffab00"/>
<text x="705.69" y="424.94" text-anchor="middle" font-family="Arial" font-size="11" fill="#172b4d">5.3</text>
<text x="687.50" y="528" text-anchor="middle" font-family="Arial" font-size="12" fill="#172b4d">Multimorb.</text>
<rect x="753.12" y="352.22" width="36.38" height="147.78" fill="#6554c0"/>
<text x="771.31" y="347.22" text-anchor="middle" font-family="Arial" font-size="11" fill="#172b4d">11.1</text>
<rect x="792.50" y="475.92" width="36.38" height="24.08" fill="#ffab00"/>
<text x="810.69" y="470.92" text-anchor="middle" font-family="Arial" font-size="11" fill="#172b4d">1.8</text>
<text x="792.50" y="528" text-anchor="middle" font-family="Arial" font-size="12" fill="#172b4d">Prognosis</text>
<rect x="858.12" y="443.08" width="36.38" height="56.92" fill="#6554c0"/>
<text x="876.31" y="438.08" text-anchor="middle" font-family="Arial" font-size="11" fill="#172b4d">4.3</text>
<rect x="897.50" y="328.13" width="36.38" height="171.87" fill="#ffab00"/>
<text x="915.69" y="323.13" text-anchor="middle" font-family="Arial" font-size="11" fill="#172b4d">12.9</text>
<text x="897.50" y="528" text-anchor="middle" font-family="Arial" font-size="12" fill="#172b4d">Caregiver</text>
<rect x="963.12" y="498.91" width="36.38" height="1.09" fill="#6554c0"/>
<text x="981.31" y="493.91" text-anchor="middle" font-family="Arial" font-size="11" fill="#172b4d">0.1</text>
<rect x="1002.50" y="481.39" width="36.38" height="18.61" fill="#ffab00"/>
<text x="1020.69" y="476.39" text-anchor="middle" font-family="Arial" font-size="11" fill="#172b4d">1.4</text>
<text x="1002.50" y="528" text-anchor="middle" font-family="Arial" font-size="12" fill="#172b4d">Polypharm.</text>
<rect x="110" y="566" width="16" height="16" fill="#6554c0"/>
<text x="134" y="579" font-family="Arial" font-size="13" fill="#172b4d">Present</text>
<rect x="370" y="566" width="16" height="16" fill="#ffab00"/>
<text x="394" y="579" font-family="Arial" font-size="13" fill="#172b4d">Expert-decision state</text>
<text transform="translate(28 300.0) rotate(-90)" text-anchor="middle" font-family="Arial" font-size="13" fill="#42526e">Percent of frozen included records</text>
</svg>
